<svg xmlns="http://www.w3.org/2000/svg" xmlns:xlink="http://www.w3.org/1999/xlink" width="457" height="367"><g transform="translate(-717 -459)"><path d="M746.13 600.13c0-2.77 2.23-5 5-5h90c2.76 0 5 2.23 5 5v90c0 2.76-2.24 5-5 5h-90c-2.77 0-5-2.24-5-5z" stroke="#000" stroke-width="4" fill="#3aa6dd"/><use xlink:href="#a" transform="matrix(1,0,0,1,746.125,595.125) translate(20.549999999999997 55.025)"/><path d="M1041.13 500.13c0-2.77 2.23-5 5-5h90c2.76 0 5 2.23 5 5v90c0 2.76-2.24 5-5 5h-90c-2.77 0-5-2.24-5-5z" stroke="#1d536f" stroke-width="2" fill="#3aa6dd"/><use xlink:href="#a" transform="matrix(1,0,0,1,1041.125,495.125) translate(20.549999999999997 55.025)"/><path d="M1041.13 700.13c0-2.77 2.23-5 5-5h90c2.76 0 5 2.23 5 5v90c0 2.76-2.24 5-5 5h-90c-2.77 0-5-2.24-5-5z" stroke="#1d536f" stroke-width="2" fill="#3aa6dd"/><use xlink:href="#a" transform="matrix(1,0,0,1,1041.125,695.125) translate(20.549999999999997 55.025)"/><path d="M846.13 645.12l5.74-.1 5.34-.35 5-.52 4.72-.7 4.48-.85 4.3-1 4.12-1.16 4.02-1.3 3.93-1.47 3.88-1.63 3.86-1.82 3.9-2.03 3.94-2.3 4.07-2.57 4.3-2.98 4.63-3.52 5.24-4.34 6.48-5.87 12.17-12.02 18.98-18.98 6.48-5.86 5.24-4.34 4.63-3.52 4.3-2.98 4.06-2.58 3.96-2.28 3.88-2.03 3.86-1.82 3.88-1.62 3.93-1.46 4.03-1.3 4.13-1.16 4.3-1 4.47-.86 4.72-.7 5-.52 5.33-.34 5.74-.1" stroke="#c92d39" stroke-width="10" fill="none"/><path d="M846.42 650.12h-.3v-5.05zM1041.13 545.13l-13.98 5.44-.53-9.25z" fill="#c92d39"/><path d="M1041.13 539.96v10.53l-18.58 7.23-1.32-23z" fill="#c92d39"/><path d="M846.13 645.13l5.74.1 5.34.35 5 .52 4.72.7 4.48.85 4.3 1 4.12 1.16 4.02 1.32 3.93 1.46 3.88 1.63 3.86 1.83 3.9 2.03 3.94 2.28 4.07 2.58 4.3 2.98 4.63 3.52 5.24 4.34 6.48 5.86 12.17 12.02 18.98 19 6.48 5.85 5.24 4.33 4.63 3.52 4.3 2.98 4.06 2.58 3.96 2.3 3.88 2.02 3.86 1.82 3.88 1.63 3.93 1.46 4.03 1.3 4.13 1.16 4.3 1 4.47.85 4.72.7 5 .52 5.33.34 5.74.12" stroke="#c92d39" stroke-width="10" fill="none"/><path d="M846.42 640.13l-.3 5.05v-5.06zM1041.13 745.13l-14.5 3.8.52-9.25z" fill="#c92d39"/><path d="M1041.13 739.76v10.53l-19.9 5.22 1.32-23z" fill="#c92d39"/><path d="M826.13 495.13c0-2.77 2.23-5 5-5h115c2.76 0 5 2.23 5 5v20c0 2.76-2.24 5-5 5h-115c-2.77 0-5-2.24-5-5z" fill="none"/><use xlink:href="#b" transform="matrix(1,0,0,1,831.125,495.125) translate(32.5 14.4)"/><path d="M888.63 520.13l1.68 8.48 1.96 8.03 2.2 7.62 2.43 7.3 2.67 7.04 2.94 6.82 3.2 6.67 3.52 6.57 3.86 6.56 4.28 6.63 4.83 6.82 5.6 7.26 6.9 8.2 10.5 11.43 21.78 22.86 3.65 4.33 2.5 3.25 1.9 2.68 1.5 2.3 1.2 2.06 1 1.87.83 1.74.7 1.63.6 1.54.48 1.5.42 1.42.34 1.4.27 1.36.2 1.34.16 1.34.1 1.34.03 1.35v1.36l-.1 1.4-.13 1.4-.2 1.47-.28 1.5-.35 1.58-.45 1.65-.55 1.74-.67 1.85-.82 1.97-.97 2.14-1.2 2.35-1.47 2.58-1.8 2.9-2.23 3.25-2.8 3.75-2.6 3.22" stroke="#000" stroke-width="2" fill="none"/><path d="M887.65 520.34l-.05-.22h1.04z"/><path d="M966.24 716.95l4.63-14.27 7.5 5.45z" stroke="#000" stroke-width="2"/><path d="M888.63 520.13l4.25 6.83 3.28 4.63 2.65 3.3 2.23 2.46 1.9 1.88 1.7 1.47 1.5 1.2 1.4.94 1.3.78 1.22.65 1.18.53 1.15.44 1.13.36 1.15.3 1.16.2 1.2.17 1.3.1h1.4l1.64-.07 2.07-.22 3.74-.64 7.63-1.4 2.33-.25 1.9-.1 1.68.02 1.58.1 1.5.2 1.5.3 1.47.37 1.5.47 1.57.6 1.64.74 1.74.92 1.88 1.13 2.06 1.42 2.3 1.8 2.64 2.3 3.07 3.02 3.68 4.07 4.6 5.72.3.4" stroke="#000" stroke-width="2" fill="none"/><path d="M887.8 520.68l-.38-.55h1.2z"/><path d="M973.7 567.3l-12.8-7.8 7.04-6.04z" stroke="#000" stroke-width="2"/><defs><path d="M190 0L58-211 59 0H30v-248h39L202-35l-2-213h31V0h-41" id="c"/><path d="M100-194c63 0 86 42 84 106H49c0 40 14 67 53 68 26 1 43-12 49-29l28 8c-11 28-37 45-77 45C44 4 14-33 15-96c1-61 26-98 85-98zm52 81c6-60-76-77-97-28-3 7-6 17-6 28h103" id="d"/><path d="M84 4C-5 8 30-112 23-190h32v120c0 31 7 50 39 49 72-2 45-101 50-169h31l1 190h-30c-1-10 1-25-2-33-11 22-28 36-60 37" id="e"/><path d="M114-163C36-179 61-72 57 0H25l-1-190h30c1 12-1 29 2 39 6-27 23-49 58-41v29" id="f"/><path d="M100-194c62-1 85 37 85 99 1 63-27 99-86 99S16-35 15-95c0-66 28-99 85-99zM99-20c44 1 53-31 53-75 0-43-8-75-51-75s-53 32-53 75 10 74 51 75" id="g"/><path d="M117-194c89-4 53 116 60 194h-32v-121c0-31-8-49-39-48C34-167 62-67 57 0H25l-1-190h30c1 10-1 24 2 32 11-22 29-35 61-36" id="h"/><g id="a"><use transform="matrix(0.05,0,0,0.05,0,0)" xlink:href="#c"/><use transform="matrix(0.05,0,0,0.05,12.950000000000001,0)" xlink:href="#d"/><use transform="matrix(0.05,0,0,0.05,22.950000000000003,0)" xlink:href="#e"/><use transform="matrix(0.05,0,0,0.05,32.95,0)" xlink:href="#f"/><use transform="matrix(0.05,0,0,0.05,38.900000000000006,0)" xlink:href="#g"/><use transform="matrix(0.05,0,0,0.05,48.900000000000006,0)" xlink:href="#h"/></g><path d="M205 0l-28-72H64L36 0H1l101-248h38L239 0h-34zm-38-99l-47-123c-12 45-31 82-46 123h93" id="i"/><path d="M141 0L90-78 38 0H4l68-98-65-92h35l48 74 47-74h35l-64 92 68 98h-35" id="j"/><path d="M135-143c-3-34-86-38-87 0 15 53 115 12 119 90S17 21 10-45l28-5c4 36 97 45 98 0-10-56-113-15-118-90-4-57 82-63 122-42 12 7 21 19 24 35" id="k"/><g id="b"><use transform="matrix(0.05,0,0,0.05,0,0)" xlink:href="#i"/><use transform="matrix(0.05,0,0,0.05,12,0)" xlink:href="#j"/><use transform="matrix(0.05,0,0,0.05,21,0)" xlink:href="#g"/><use transform="matrix(0.05,0,0,0.05,31,0)" xlink:href="#h"/><use transform="matrix(0.05,0,0,0.05,41,0)" xlink:href="#k"/></g></defs></g></svg>